<svg xmlns="http://www.w3.org/2000/svg" xmlns:xlink="http://www.w3.org/1999/xlink" width="512" zoomAndPan="magnify" viewBox="0 0 384 383.999986" height="512" preserveAspectRatio="xMidYMid meet" version="1.0"><defs><g/><clipPath id="0ca6c66f99"><path d="M 192 0 C 85.960938 0 0 85.960938 0 192 C 0 298.039062 85.960938 384 192 384 C 298.039062 384 384 298.039062 384 192 C 384 85.960938 298.039062 0 192 0 Z M 192 0 " clip-rule="nonzero"/></clipPath></defs><g clip-path="url(#0ca6c66f99)"><path stroke-linecap="butt" transform="matrix(0.75, 0, 0, 0.75, 0.0000072, 0)" fill="none" stroke-linejoin="miter" d="M 256.000011 0 C 114.614583 0 -0.0000096 114.614592 -0.0000096 256.00002 C -0.0000096 397.385448 114.614583 512.000041 256.000011 512.000041 C 397.385439 512.000041 512.000031 397.385448 512.000031 256.00002 C 512.000031 114.614592 397.385439 0 256.000011 0 Z M 256.000011 0 " stroke="#e98a32" stroke-width="40" stroke-opacity="1" stroke-miterlimit="4"/></g><g fill="#e98a32" fill-opacity="1"><g transform="translate(53.967776, 307.499976)"><g><path d="M 173.4375 -117.027344 C 133.832031 -129.027344 107.722656 -158.734375 107.722656 -191.441406 L 107.722656 -195.644531 L 167.136719 -195.644531 L 167.136719 -215.449219 L 107.722656 -215.449219 L 107.722656 -248.15625 L 83.117188 -248.15625 L 83.117188 -215.449219 L 23.40625 -215.449219 L 23.40625 -195.644531 L 83.117188 -195.644531 L 83.117188 -191.441406 C 83.117188 -155.734375 55.8125 -124.527344 15.902344 -112.226562 L 27.90625 -93.019531 C 59.714844 -103.222656 84.019531 -124.828125 95.722656 -153.035156 C 107.722656 -127.527344 131.128906 -107.722656 161.738281 -98.121094 Z M 79.816406 -55.511719 L 200.445312 -55.511719 L 200.445312 -1.199219 L 79.816406 -1.199219 Z M 55.8125 18.605469 L 224.75 18.605469 L 224.75 -75.015625 L 55.8125 -75.015625 Z M 264.660156 -178.839844 L 224.75 -178.839844 L 224.75 -246.957031 L 200.144531 -246.957031 L 200.144531 -87.621094 L 224.75 -87.621094 L 224.75 -158.4375 L 264.660156 -158.4375 Z M 264.660156 -178.839844 "/></g></g></g></svg>